<svg class="icon" viewBox="0 0 1024 1024" xmlns="http://www.w3.org/2000/svg" width="48" height="48"><defs><style/></defs><path d="M910.026 172.463C910.026 78.143 839.695 0 752.11 0H271.89c-87.585 0-157.916 78.143-157.916 172.463v679.074c0 94.32 70.331 172.463 157.916 172.463h480.22c87.585 0 157.916-78.143 157.916-172.463V172.463zM856.13 851.537c0 65.747-47.54 118.568-104.021 118.568H271.89c-56.48 0-104.021-52.821-104.021-118.568V172.463c0-65.747 47.54-118.568 104.021-118.568h480.22c56.48 0 104.021 52.821 104.021 118.568v679.074zM187.634 808.42h674.682v-53.895H161.684v53.895h25.95zm249.512 107.79h155.696v-53.895H431.158v53.895h5.988z" fill="#fff"/></svg>